<?xml version="1.0" standalone="no"?>
<!DOCTYPE svg PUBLIC "-//W3C//DTD SVG 1.0//EN" "http://www.w3.org/TR/2001/REC-SVG-20010904/DTD/svg10.dtd">
<svg xmlns="http://www.w3.org/2000/svg" xmlns:xlink="http://www.w3.org/1999/xlink" id="body_1" width="512" height="512">

<g transform="matrix(2.1333337 0 0 2.1333337 35.203423 -0)">
	<g>
        <path d="M101.347496 60C 101.3475 61.444366 100.836845 62.677208 99.81552 63.69852C 98.794205 64.71984 97.56136 65.2305 96.117 65.2305C 94.67264 65.2305 93.4398 64.71984 92.41847 63.69852C 91.397156 62.677208 90.8865 61.444366 90.8865 60C 90.8865 58.555637 91.397156 57.3228 92.41847 56.30148C 93.4398 55.28016 94.67264 54.7695 96.117 54.7695C 97.56136 54.7695 98.794205 55.28016 99.81552 56.30148C 100.836845 57.3228 101.3475 58.555637 101.347496 60C 101.3475 60.060867 101.34644 60.121716 101.344315 60.18254" stroke="none" fill="#D0E8FF" fill-rule="nonzero" />
        <path d="M69.8826 65.3555C 70.5681 68.7227 71.8787 71.886696 73.781 74.7617C 74.829796 76.3476 74.6189 78.4492 73.2751 79.796906L73.2751 79.796906L70.656 82.418C 70.2498 82.824196 70.029 83.3594 70.029 83.9336C 70.029 84.507805 70.2536 85.050804 70.6599 85.457C 71.072 85.8672 71.613 86.093704 72.1833 86.093704L72.1833 86.093704L72.185295 86.093704C 72.75369 86.093704 73.292694 85.871 73.699 85.46091L73.699 85.46091L76.3201 82.843704C 77.0935 82.070305 78.117 81.67181 79.1502 81.67181C 79.9139 81.67181 80.6814 81.89061 81.3553 82.33591C 84.2323 84.238205 87.3963 85.550705 90.7576 86.23041C 92.6228 86.60931 93.9627 88.25001 93.9627 90.152306L93.9627 90.152306L93.9627 93.85541C 93.9627 95.03901 94.9295 95.99991 96.117 95.99991C 97.324 95.99991 98.27129 95.05851 98.27129 93.85541L98.27129 93.85541L98.27129 90.152306C 98.27129 88.25001 99.61109 86.60931 101.476395 86.23041C 104.83769 85.550705 108.00179 84.238205 110.87869 82.33591C 112.46269 81.28511 114.56819 81.49611 115.913895 82.843704L115.913895 82.843704L118.533 85.46091C 119.3689 86.29681 120.7342 86.28511 121.574 85.45701C 122.4256 84.60151 122.4295 83.26951 121.579895 82.41791L121.579895 82.41791L118.95879 79.79681C 117.61499 78.449104 117.40409 76.3476 118.452896 74.761604C 120.355194 71.886604 121.665794 68.7225 122.351295 65.35541C 122.730194 63.492107 124.3689 62.15231 126.271194 62.15231L126.271194 62.15231L129.9724 62.15231C 131.15399 62.15231 132.1169 61.187508 132.1169 60.000008C 132.1169 58.793007 131.17549 57.84771 129.9724 57.84771L129.9724 57.84771L126.271194 57.84771C 124.3689 57.84771 122.730194 56.507908 122.351295 54.64461C 121.665794 51.277412 120.355194 48.11341 118.452896 45.23841C 117.4041 43.65251 117.615 41.547012 118.96069 40.20321L118.96069 40.20321L121.579796 37.58601C 122.415695 36.75011 122.413795 35.38291 121.5739 34.54301C 120.7204 33.69141 119.3844 33.68361 118.5348 34.539112L118.5348 34.539112L115.9137 37.15631C 114.56799 38.50401 112.462494 38.714912 110.878494 37.664112C 108.001495 35.76181 104.837494 34.44931 101.4762 33.76961C 99.61099 33.390713 98.271095 31.75011 98.271095 29.847712L98.271095 29.847712L98.271095 26.144611C 98.271095 24.961012 97.3043 24.00011 96.1168 24.00011C 94.9098 24.00011 93.9625 24.941511 93.9625 26.144611L93.9625 26.144611L93.9625 29.847712C 93.9625 31.75011 92.6227 33.390713 90.7574 33.76961C 87.3961 34.44931 84.232 35.76181 81.3551 37.664112C 79.763306 38.711014 77.661705 38.496113 76.3199 37.15631L76.3199 37.15631L73.7008 34.539112C 72.859 33.695312 71.4938 33.70711 70.6598 34.54301C 69.8063 35.39851 69.8043 36.73441 70.6559 37.58601L70.6559 37.58601L73.2731 40.20321C 74.618805 41.54701 74.829704 43.65241 73.7809 45.23841C 71.8786 48.11341 70.568 51.27751 69.8825 54.64461C 69.5036 56.50791 67.8649 57.84771 65.9626 57.84771L65.9626 57.84771L62.261402 57.84771C 61.079803 57.84771 60.1169 58.81251 60.1169 60.000008C 60.1169 61.20701 61.0583 62.152306 62.261402 62.152306L62.261402 62.152306L65.9626 62.152306C 67.865 62.1523 69.5037 63.4922 69.8826 65.3555zM96.117 46.7695C 103.411896 46.7695 109.347496 52.703102 109.347496 60C 109.347496 67.2969 103.411995 73.2305 96.117 73.2305C 88.822 73.2305 82.8865 67.2969 82.8865 60C 82.8865 52.703102 88.822 46.7695 96.117 46.7695z" stroke="none" fill="#5CB0FF" fill-rule="nonzero" />
        <path d="M116.8767 167.5938C 115.0447 167.18759 113.7419 165.56259 113.7419 163.68759L113.7419 163.68759L113.7419 141.7618C 113.7419 140.004 114.8884 138.4532 116.5681 137.93759C 139.1579 130.99619 156.4763 112.39069 161.7673 89.37899C 161.98021 88.44929 162.5193 87.62899 163.2829 87.05869C 168.6599 83.074295 171.7419 76.96099 171.7419 70.28529C 171.7419 62.511894 167.4626 55.433693 160.5759 51.808693C 159.7341 51.367294 159.0779 50.640694 158.7243 49.757893C 148.572 24.3906 124.3533 8 97.0271 8C 69.7009 8 45.4822 24.3906 35.3279 49.7578C 34.9744 50.640602 34.3181 51.367203 33.4763 51.8086C 26.5896 55.4336 22.312199 62.511703 22.312199 70.2852C 22.312199 76.961 25.3942 83.0743 30.7692 87.0586C 31.5329 87.6289 32.0719 88.4492 32.284798 89.3789C 37.575798 112.390594 54.896095 130.9961 77.48599 137.9375C 79.165695 138.4531 80.312195 140.0039 80.312195 141.7617L80.312195 141.7617L80.312195 163.6875C 80.312195 165.5625 79.00949 167.1875 77.1774 167.5937C 44.3689 174.8633 18.1424 199.875 9.1267 232L9.1267 232L184.92749 232C 175.9099 199.8711 149.6834 174.8633 116.8767 167.5938zM62.8533 70.1523L62.261497 70.1523C 56.667698 70.1523 52.116997 65.597595 52.116997 60C 52.116997 54.402405 56.667797 49.847702 62.261497 49.847702L62.261497 49.847702L62.8533 49.847702C 63.5056 47.707104 64.3611 45.6407 65.4178 43.660202L65.4178 43.660202L64.9979 43.242203C 61.044804 39.285202 61.046703 32.847702 65.0018 28.886703C 68.9666 24.929703 75.4041 24.933603 79.3573 28.882803L79.3573 28.882803L79.7772 29.300802C 81.7557 28.246101 83.8221 27.390602 85.9627 26.738302L85.9627 26.738302L85.9627 26.144503C 85.9627 20.5508 90.5174 16 96.117 16C 101.71659 16 106.27129 20.5508 106.27129 26.1445L106.27129 26.1445L106.27129 26.7383C 108.411896 27.3906 110.478294 28.2461 112.456795 29.3008L112.456795 29.3008L112.87669 28.882801C 116.829796 24.933601 123.267296 24.933601 127.228294 28.882801C 131.1892 32.8437 131.1912 39.285103 127.2381 43.242203L127.2381 43.242203L126.8162 43.660202C 127.8728 45.6407 128.7283 47.7071 129.3806 49.847702L129.3806 49.847702L129.9724 49.847702C 135.5662 49.847702 140.1169 54.4024 140.1169 60C 140.1169 65.597595 135.5661 70.1523 129.9724 70.1523L129.9724 70.1523L129.3806 70.1523C 128.7283 72.2968 127.870804 74.3632 126.8162 76.3398L126.8162 76.3398L127.2381 76.761696C 131.1893 80.7148 131.1873 87.1523 127.2322 91.1133C 123.2713 95.074196 116.8338 95.074196 112.8767 91.117195L112.8767 91.117195L112.4568 90.699196C 110.4783 91.7539 108.4119 92.6094 106.2713 93.261696L106.2713 93.261696L106.2713 93.8555C 106.2713 99.4493 101.7166 104 96.117004 104C 90.51741 104 85.96271 99.4492 85.96271 93.8555L85.96271 93.8555L85.96271 93.261696C 83.822105 92.6094 81.75571 91.7539 79.77721 90.699196L79.77721 90.699196L79.35731 91.117195C 77.44131 93.035194 74.89641 94.093796 72.19131 94.093796C 72.18931 94.093796 72.18541 94.093796 72.18541 94.093796C 69.47641 94.093796 66.92761 93.035194 65.00381 91.1133C 63.087807 89.1953 62.031105 86.6485 62.029205 83.9375C 62.027206 81.2227 63.081905 78.6719 64.99991 76.7578L64.99991 76.7578L65.41791 76.3398C 64.3631 74.3633 63.5056 72.2969 62.8533 70.1523zM64.117 108C 64.117 105.7891 65.908 104 68.117 104C 70.326 104 72.117 105.7891 72.117 108C 72.117 113.6758 82.79469 120 98.117 120C 113.4393 120 124.117 113.6758 124.117 108C 124.117 105.7891 125.908 104 128.117 104C 130.326 104 132.117 105.7891 132.117 108C 132.117 119.2148 117.1834 128 98.117004 128C 79.050606 128 64.117 119.2148 64.117 108z" stroke="none" fill="#D0E8FF" fill-rule="nonzero" />
        <path d="M121.742 160.5312L121.742 144.6562C 145.2186 136.3945 163.1736 116.746 169.2303 92.56241C 175.8377 87.10151 179.742 78.882706 179.742 70.28511C 179.742 60.03121 174.3631 50.652313 165.60721 45.46091C 153.9275 17.7969 127.1658 0 97.0271 0C 66.890396 0 40.1267 17.7969 28.445099 45.4609C 19.689198 50.652298 14.312299 60.0312 14.312299 70.285095C 14.312299 78.8828 18.2146 87.101494 24.822098 92.56239C 30.878698 116.742096 48.8358 136.3944 72.3123 144.65619L72.3123 144.65619L72.3123 160.53119C 36.3357 169.75 8.1677 198.7148 0.0955 235.1328C -0.16820002 236.3203 0.1209 237.5586 0.8807 238.50389C 1.6405001 239.44919 2.7869 240 3.9998 240L3.9998 240L190.0545 240C 191.26741 240 192.41391 239.4492 193.1736 238.5039C 193.93329 237.55861 194.2224 236.32031 193.9588 235.13281C 185.8845 198.7148 157.7166 169.75 121.742 160.5312zM9.1267 232C 18.1423 199.875 44.3689 174.8633 77.1775 167.59381C 79.0095 167.1876 80.3123 165.5626 80.3123 163.6876L80.3123 163.6876L80.3123 141.76181C 80.3123 140.00401 79.1658 138.45322 77.4861 137.9376C 54.8963 130.9962 37.5759 112.39071 32.2849 89.379005C 32.072002 88.4493 31.5329 87.629005 30.7693 87.05871C 25.3943 83.07431 22.312302 76.961006 22.312302 70.28531C 22.312302 62.51191 26.589602 55.43371 33.476402 51.80871C 34.318203 51.36731 34.974403 50.64071 35.328003 49.757908C 45.4822 24.3906 69.701 8 97.0271 8C 124.3532 8 148.57199 24.3906 158.7244 49.7578C 159.0779 50.640602 159.73419 51.367203 160.57599 51.8086C 167.46269 55.4336 171.74199 62.511703 171.74199 70.2852C 171.74199 76.961 168.65999 83.0743 163.28299 87.0586C 162.51929 87.6289 161.98029 88.4492 161.7674 89.3789C 156.4764 112.390594 139.15799 130.9961 116.56819 137.9375C 114.88849 138.4531 113.74199 140.0039 113.74199 141.7617L113.74199 141.7617L113.74199 163.6875C 113.74199 165.5625 115.04469 167.1875 116.876785 167.5937C 149.68338 174.8632 175.90999 199.871 184.92758 231.99991L184.92758 231.99991L9.1267 231.99991z" stroke="none" fill="#1C71DA" fill-rule="nonzero" />
        <path d="M96.117 73.2305C 103.411896 73.2305 109.347496 67.2969 109.347496 60C 109.347496 52.703102 103.411995 46.7695 96.117 46.7695C 88.822 46.7695 82.8865 52.7031 82.8865 60C 82.8865 67.296906 88.822 73.2305 96.117 73.2305zM96.117 54.7695C 99.0018 54.7695 101.347496 57.117203 101.347496 60C 101.347496 62.882797 99.00179 65.2305 96.117 65.2305C 93.2322 65.2305 90.8865 62.8828 90.8865 60C 90.8865 57.1172 93.2322 54.7695 96.117 54.7695z" stroke="none" fill="#1C71DA" fill-rule="nonzero" />
        <path d="M62.0291 83.9375C 62.031097 86.6484 63.0877 89.1953 65.0037 91.1133C 66.9275 93.035194 69.4764 94.093796 72.1834 94.093796C 72.1834 94.093796 72.1893 94.093796 72.1912 94.093796C 74.8963 94.093796 77.4412 93.035194 79.3572 91.117195L79.3572 91.117195L79.7771 90.699196C 81.7556 91.7539 83.822 92.6094 85.9626 93.261696L85.9626 93.261696L85.9626 93.8555C 85.9627 99.4492 90.5174 104 96.117 104C 101.71659 104 106.27129 99.4492 106.27129 93.8555L106.27129 93.8555L106.27129 93.261696C 108.411896 92.6094 110.478294 91.7539 112.456795 90.699196L112.456795 90.699196L112.87669 91.117195C 116.833694 95.074196 123.271194 95.074196 127.23219 91.1133C 131.18729 87.1524 131.1892 80.7149 127.23809 76.761696L127.23809 76.761696L126.81619 76.3398C 127.870895 74.3632 128.72829 72.2968 129.3806 70.1523L129.3806 70.1523L129.9724 70.1523C 135.5662 70.1523 140.1169 65.597595 140.1169 60C 140.1169 54.402405 135.5661 49.847702 129.9724 49.847702L129.9724 49.847702L129.3806 49.847702C 128.7283 47.707104 127.8728 45.6407 126.8162 43.660202L126.8162 43.660202L127.2381 43.242203C 131.1912 39.285202 131.1893 32.843803 127.228294 28.882803C 123.267395 24.933603 116.829895 24.933603 112.87669 28.882803L112.87669 28.882803L112.456795 29.300802C 110.478294 28.246101 108.411896 27.390602 106.27129 26.738302L106.27129 26.738302L106.27129 26.144503C 106.2713 20.5508 101.7166 16 96.117 16C 90.517395 16 85.9627 20.5508 85.9627 26.1445L85.9627 26.1445L85.9627 26.7383C 83.8221 27.3906 81.7557 28.2461 79.7772 29.3008L79.7772 29.3008L79.3573 28.882801C 75.4042 24.933601 68.9667 24.9297 65.0018 28.886702C 61.0467 32.847603 61.0448 39.285103 64.9979 43.242203L64.9979 43.242203L65.4178 43.660202C 64.3612 45.6407 63.5057 47.7071 62.853302 49.847702L62.853302 49.847702L62.2615 49.847702C 56.6677 49.847702 52.117 54.4024 52.117 60C 52.117 65.597595 56.6678 70.1523 62.2615 70.1523L62.2615 70.1523L62.853302 70.1523C 63.505604 72.2968 64.3631 74.3632 65.4178 76.3398L65.4178 76.3398L64.9998 76.7578C 63.0818 78.6719 62.0271 81.2227 62.0291 83.9375zM62.2615 62.1523C 61.058403 62.1523 60.117 61.207 60.117 60C 60.117 58.8125 61.0799 57.847702 62.2615 57.847702L62.2615 57.847702L65.9627 57.847702C 67.865 57.847702 69.5037 56.5079 69.8826 54.644604C 70.5681 51.277405 71.8787 48.113403 73.781 45.238403C 74.829796 43.652504 74.6189 41.547005 73.2732 40.2032L73.2732 40.2032L70.656 37.586002C 69.8044 36.7344 69.8064 35.398502 70.6599 34.543003C 71.4939 33.707104 72.8591 33.695305 73.7009 34.539104L73.7009 34.539104L76.32 37.156303C 77.6618 38.496105 79.7634 38.711002 81.3552 37.664104C 84.2322 35.761803 87.3962 34.449303 90.7575 33.769604C 92.622696 33.390705 93.9626 31.750103 93.9626 29.847704L93.9626 29.847704L93.9626 26.144604C 93.9626 24.941504 94.909904 24.000103 96.1169 24.000103C 97.3044 24.000103 98.271194 24.961002 98.271194 26.144604L98.271194 26.144604L98.271194 29.847704C 98.271194 31.750103 99.61099 33.390705 101.476295 33.769604C 104.83759 34.449303 108.00169 35.761803 110.87859 37.664104C 112.46259 38.714905 114.56809 38.503906 115.913795 37.156303L115.913795 37.156303L118.5349 34.539104C 119.3845 33.683605 120.7204 33.691406 121.574 34.543003C 122.413795 35.382805 122.415794 36.750103 121.579895 37.586002L121.579895 37.586002L118.96079 40.2032C 117.61509 41.547 117.40419 43.6524 118.452995 45.238403C 120.35529 48.113403 121.66589 51.277504 122.351395 54.644604C 122.73029 56.507904 124.368996 57.847702 126.27129 57.847702L126.27129 57.847702L129.97249 57.847702C 131.17558 57.847702 132.11699 58.793003 132.11699 60C 132.11699 61.1875 131.15408 62.152298 129.97249 62.152298L129.97249 62.152298L126.271286 62.152298C 124.36899 62.152298 122.730286 63.4921 122.35139 65.3554C 121.665886 68.7226 120.355286 71.8866 118.45299 74.7616C 117.40419 76.347496 117.61509 78.4491 118.958885 79.7968L118.958885 79.7968L121.57999 82.4179C 122.42959 83.2695 122.42569 84.6015 121.57409 85.457C 120.73429 86.2851 119.36899 86.2968 118.53309 85.4609L118.53309 85.4609L115.91399 82.8437C 114.56828 81.495995 112.46278 81.285095 110.878784 82.3359C 108.001785 84.2382 104.83778 85.5507 101.47649 86.2304C 99.61128 86.6093 98.271385 88.25 98.271385 90.1523L98.271385 90.1523L98.271385 93.8554C 98.2713 95.0586 97.324 96 96.117 96C 94.9295 96 93.9627 95.0391 93.9627 93.8555L93.9627 93.8555L93.9627 90.1524C 93.9627 88.2501 92.6229 86.6094 90.7576 86.2305C 87.3963 85.5508 84.2322 84.2383 81.3553 82.336C 80.6815 81.8907 79.9139 81.6719 79.1502 81.6719C 78.117 81.6719 77.0936 82.0703 76.3201 82.843796L76.3201 82.843796L73.699 85.461C 73.2928 85.8712 72.7537 86.093796 72.185295 86.093796L72.185295 86.093796L72.1833 86.093796C 71.613 86.093796 71.072 85.867195 70.6599 85.45709C 70.2537 85.050896 70.029 84.50789 70.029 83.93369C 70.029 83.3595 70.2497 82.824295 70.656 82.41809L70.656 82.41809L73.2751 79.79699C 74.618904 78.44929 74.8298 76.347786 73.781 74.76179C 71.8787 71.88679 70.5681 68.72269 69.8826 65.35559C 69.5037 63.49229 67.865 62.152493 65.9627 62.152493L65.9627 62.152493L62.2615 62.152493z" stroke="none" fill="#1C71DA" fill-rule="nonzero" />
        <path d="M132.117 108C 132.117 105.7891 130.326 104 128.117 104C 125.908005 104 124.117004 105.7891 124.117004 108C 124.117004 113.6758 113.4393 120 98.117004 120C 82.79471 120 72.117004 113.6758 72.117004 108C 72.117004 105.7891 70.326004 104 68.117004 104C 65.908005 104 64.117004 105.7891 64.117004 108C 64.117004 119.2148 79.050606 128 98.117004 128C 117.1834 128 132.117 119.2148 132.117 108z" stroke="none" fill="#1C71DA" fill-rule="nonzero" />
	</g>
    <path d="M4.3694 151.8223C 3.3455 151.8223 2.322 151.4317 1.5408001 150.65039C -0.021199942 149.0889 -0.021199942 146.5557 1.5408001 144.99419L1.5408001 144.99419L15.6829 130.8516C 17.2454 129.2891 19.7776 129.2891 21.3401 130.8516C 22.9021 132.41309 22.9021 134.94629 21.3401 136.5078L21.3401 136.5078L7.198 150.6504C 6.4168 151.4316 5.3933 151.8223 4.3694 151.8223z" stroke="none" fill="#FF5D5D" fill-rule="nonzero" />
    <path d="M18.5115 151.8223C 17.487598 151.8223 16.4641 151.4317 15.682899 150.65039L15.682899 150.65039L1.5408 136.5088C -0.02120006 134.94731 -0.02120006 132.41411 1.5408 130.8526C 3.1033 129.2901 5.6355 129.2901 7.198 130.8526L7.198 130.8526L21.3401 144.9942C 22.9021 146.5557 22.9021 149.0889 21.3401 150.6504C 20.5589 151.4316 19.5354 151.8223 18.5115 151.8223z" stroke="none" fill="#FF5D5D" fill-rule="nonzero" />
    <path d="M94.3694 219.8223C 86.649704 219.8223 80.3694 213.54199 80.3694 205.8223C 80.3694 198.1026 86.649704 191.8223 94.3694 191.8223C 102.089096 191.8223 108.3694 198.1026 108.3694 205.8223C 108.3694 213.54199 102.0891 219.8223 94.3694 219.8223zM94.3694 199.8223C 91.0608 199.8223 88.3694 202.5137 88.3694 205.8223C 88.3694 209.13089 91.0608 211.8223 94.3694 211.8223C 97.678 211.8223 100.3694 209.13089 100.3694 205.8223C 100.3694 202.5137 97.678 199.8223 94.3694 199.8223z" stroke="none" fill="#00D40B" fill-rule="nonzero" />
    <path d="M191.6829 46.4492C 190.65901 46.4492 189.63551 46.0586 188.85431 45.277298L188.85431 45.277298L177.5408 33.9638C 175.9788 32.402298 175.9788 29.869099 177.5408 28.307598L177.5408 28.307598L188.85431 16.994099C 190.41681 15.431599 192.94951 15.431599 194.51102 16.994099L194.51102 16.994099L205.82501 28.307598C 206.57552 29.057598 206.99692 30.0752 206.99692 31.135698C 206.99692 32.196198 206.57552 33.2138 205.82501 33.9638L205.82501 33.9638L194.51102 45.277298C 193.7302 46.0586 192.7063 46.4492 191.6829 46.4492zM186.0261 31.1357L191.6828 36.7919L197.34 31.1357L191.6828 25.4795L186.0261 31.1357z" stroke="none" fill="#FFC504" fill-rule="nonzero" />
</g>
</svg>